{"title":"Yaariyan (2013) Sunny Sunny Feat.Yo Yo Honey Singh HD 1080p x264","uid":9305553,"size":68689739,"categoryP":"video","categoryS":"music_videos","magnet":"?xt=urn:btih:06bdf34eb8d022232c65d5cfd0c486b91f547334&amp;dn=Yaariyan+%282013%29+Sunny+Sunny+Feat.Yo+Yo+Honey+Singh+HD+1080p+x264&amp;tr=udp%3A%2F%2Ftracker.openbittorrent.com%3A80&amp;tr=udp%3A%2F%2Fopen.demonii.com%3A1337&amp;tr=udp%3A%2F%2Ftracker.coppersurfer.tk%3A6969&amp;tr=udp%3A%2F%2Fexodus.desync.com%3A6969","seeders":2,"leechers":0,"uploader":"Palash995","files":1,"time":1386311139,"description":"[center][b][size=200][color=red]Without Any reason..Don't Dislike the torrent.....please check and give your feedback[/color][/size]\n\n[img]http://i843.photobucket.com/albums/zz358/0Krish0/h9quhhT_zpsd3b38ceb.jpg[/img]\n\n\nPresenting &quot;Sunny Sunny&quot; video song feat Honey Singh from YAARIYAN movie Himansh Kohli,Rakul Preet, Evelyn Sharma, Serah Singh, Dev Sharma, Nicole Faria, Shreyas Pardiwalla. \n\nSunny Sunny is a day party song composed, written &amp; performed by Yo Yo Honey Singh, the female voice is of Neha Kakkar. \n\nDirected by Divya Khosla Kumar, the song was shot in Cape Town, South Africa.The song video has good international appeal with so many bikini clad women and bare chested men around on a beautiful beaches of Cape of Good Hope. \n\nSong: SUNNY SUNNY\nSinger: YO YO HONEY SINGH, NEHA KAKKAR\nMusic: YO YO HONEY SINGH\nLyrics: YO YO HONEY SINGH\nMovie: YAARIYAN\nMusic Label: T-SERIES\nMixed and Mastered: VINOD VERMA \nMovie Releasing: 10 Jan 2014\n\nScreenshots:-\n\n[img]http://img844.imageshack.us/img844/5708/2cgc.jpg[/img]\n\n[img]http://img42.imageshack.us/img42/5130/s5fp.jpg[/img]\n\n[img]http://img580.imageshack.us/img580/1325/id9u.jpg[/img]\n\n\n\n\nMedia Info:-\n\nGeneral\nComplete name                            : Yaariyan (2014) Sunny Sunny Feat.Yo Yo Honey Singh HD 1080p x264 Hindi Video Song {DAKU RG} {GreatPalash}.mp4\nFormat                                   : MPEG-4\nFormat profile                           : Base Media\nCodec ID                                 : isom\nFile size                                : 65.5 MiB\nDuration                                 : 2mn 8s\nOverall bit rate mode                    : Variable\nOverall bit rate                         : 4 286 Kbps\nWriting application                      : Lavf53.31.100\n\nVideo\nID                                       : 1\nFormat                                   : AVC\nFormat/Info                              : Advanced Video Codec\nFormat profile                           : &lt;a class=&quot;__cf_email__&quot; href=&quot;/cdn-cgi/l/email-protection&quot; data-cfemail=&quot;a9e1c0cec1e9e59d8798&quot;&gt;[email&amp;#160;protected]&lt;/a&gt;&lt;script data-cfhash='f9e31' type=&quot;text/javascript&quot;&gt;\n/* &lt;![CDATA[ */!function(){try{var t=&quot;currentScript&quot;in document?document.currentScript:function(){for(var t=document.getElementsByTagName(&quot;script&quot;),e=t.length;e--;)if(t[e].getAttribute(&quot;data-cfhash&quot;))return t[e]}();if(t&amp;&amp;t.previousSibling){var e,r,n,i,c=t.previousSibling,a=c.getAttribute(&quot;data-cfemail&quot;);if(a){for(e=&quot;&quot;,r=parseInt(a.substr(0,2),16),n=2;a.length-n;n+=2)i=parseInt(a.substr(n,2),16)^r,e+=String.fromCharCode(i);e=document.createTextNode(e),c.parentNode.replaceChild(e,c)}t.parentNode.removeChild(t);}}catch(u){}}()/* ]]&gt; */&lt;/script&gt;\nFormat settings, CABAC                   : Yes\nFormat settings, ReFrames                : 3 frames\nCodec ID                                 : avc1\nCodec ID/Info                            : Advanced Video Coding\nDuration                                 : 2mn 8s\nBit rate mode                            : Variable\nBit rate                                 : 4 026 Kbps\nMaximum bit rate                         : 19.2 Mbps\nWidth                                    : 1 920 pixels\nHeight                                   : 1 080 pixels\nDisplay aspect ratio                     : 16:9\nFrame rate mode                          : Constant\nFrame rate                               : 25.000 fps\nStandard                                 : PAL\nColor space                              : YUV\nChroma subsampling                       : 4:2:0\nBit depth                                : 8 bits\nScan type                                : Progressive\nBits/(Pixel*Frame)                       : 0.078\nStream size                              : 61.5 MiB (94%)\nColor primaries                          : BT.709\nTransfer characteristics                 : BT.709\nMatrix coefficients                      : BT.709\n\nAudio\nID                                       : 2\nFormat                                   : AAC\nFormat/Info                              : Advanced Audio Codec\nFormat profile                           : LC\nCodec ID                                 : 40\nDuration                                 : 2mn 8s\nBit rate mode                            : Constant\nBit rate                                 : 254 Kbps\nChannel(s)                               : 2 channels\nChannel positions                        : Front: L R\nSampling rate                            : 44.1 KHz\nCompression mode                         : Lossy\nStream size                              : 3.87 MiB (6%)\n\n[IMG]http://imageshack.us/a/img89/4822/zka.gif[/IMG]\n\n[IMG]http://imageshack.us/a/img200/185/tj8.gif[/IMG]\n\n[IMG]http://imageshack.us/a/img593/9603/ua8.gif[/IMG]\n\n[IMG]http://imageshack.us/a/img707/5608/ysmp.png[/IMG][/b][/center]","torrent":{"xt":"urn:btih:06bdf34eb8d022232c65d5cfd0c486b91f547334","amp;dn":"Yaariyan+%282013%29+Sunny+Sunny+Feat.Yo+Yo+Honey+Singh+HD+1080p+x264","amp;tr":["udp%3A%2F%2Ftracker.openbittorrent.com%3A80","udp%3A%2F%2Fopen.demonii.com%3A1337","udp%3A%2F%2Ftracker.coppersurfer.tk%3A6969","udp%3A%2F%2Fexodus.desync.com%3A6969"],"infoHash":"06bdf34eb8d022232c65d5cfd0c486b91f547334","infoHashBuffer":{"type":"Buffer","data":[6,189,243,78,184,208,34,35,44,101,213,207,208,196,134,185,31,84,115,52]},"announce":[],"urlList":[]}}